<svg width="1907" height="1137" fill="none" xmlns="http://www.w3.org/2000/svg"><mask id="a" style="mask-type:alpha" maskUnits="userSpaceOnUse" x="0" y="0" width="1907" height="1137"><path fill="#fff" d="M0 0h1907v1137H0z"/></mask><g mask="url(#a)"><path fill="#181818" d="M0 0h1907v1137H0z"/><path d="M953 582c160.71 0 291-130.285 291-291S1113.71 0 953 0" stroke="url(#b)" stroke-width="155" stroke-linecap="round"/><circle cx="648" cy="488" r="291" stroke="url(#c)" stroke-width="155"/><path d="M648 1400c-160.715 0-291-130.29-291-291 0-160.715 130.285-291 291-291" stroke="url(#d)" stroke-width="155" stroke-linecap="round"/><path d="M1401.5 955.5c0 160.71-130.29 291-291 291" stroke="url(#e)" stroke-width="155" stroke-linecap="round"/><path d="M122 582v478" stroke="url(#f)" stroke-width="155" stroke-linecap="round"/><path d="M133 46h192" stroke="url(#g)" stroke-width="155" stroke-linecap="round"/><path fill="#414141" d="M502 1031.09h3.533v25.911H502zm49.467 0H555v25.911h-3.533zm-7.067 0h3.533v25.911H544.4zm-7.067 0h3.533v25.911h-3.533zm-7.066 0h3.533v25.911h-3.533zm-7.067 0h3.533v25.911H523.2zm-7.067 0h3.533v25.911h-3.533zm-7.066 0h3.533v25.911h-3.533zM502 894.467h3.533v25.911H502zm49.467 0H555v25.911h-3.533zm-7.067 0h3.533v25.911H544.4zm-7.067 0h3.533v25.911h-3.533zm-7.066 0h3.533v25.911h-3.533zm-7.067 0h3.533v25.911H523.2zm-7.067 0h3.533v25.911h-3.533zm-7.066 0h3.533v25.911h-3.533zM502 928.622h3.533v25.911H502zm49.467 0H555v25.911h-3.533zm-7.067 0h3.533v25.911H544.4zm-7.067 0h3.533v25.911h-3.533zm-7.066 0h3.533v25.911h-3.533zm-7.067 0h3.533v25.911H523.2zm-7.067 0h3.533v25.911h-3.533zm-7.066 0h3.533v25.911h-3.533zM502 962.778h3.533v25.911H502zm49.467 0H555v25.911h-3.533zm-7.067 0h3.533v25.911H544.4zm-7.067 0h3.533v25.911h-3.533zm-7.066 0h3.533v25.911h-3.533zm-7.067 0h3.533v25.911H523.2zm-7.067 0h3.533v25.911h-3.533zm-7.066 0h3.533v25.911h-3.533zM502 996.933h3.533v25.911H502zm49.467 0H555v25.911h-3.533zm-7.067 0h3.533v25.911H544.4zm-7.067 0h3.533v25.911h-3.533zm-7.066 0h3.533v25.911h-3.533zm-7.067 0h3.533v25.911H523.2zm-7.067 0h3.533v25.911h-3.533zm-7.066 0h3.533v25.911h-3.533z"/><path fill="#1F1E1E" d="M1132.41 328.674v-6.217h45.594v6.217zm0 12.435v-6.217h45.594v6.217zm0 12.434v-6.217h45.594v6.217zM892 328.674v-6.217h45.594v6.217zm0 12.435v-6.217h45.594v6.217zm0 12.434v-6.217h45.594v6.217zm60.101-24.869v-6.217h45.594v6.217zm0 12.435v-6.217h45.594v6.217zm0 12.434v-6.217h45.594v6.217zm60.099-24.869v-6.217h45.594v6.217zm0 12.435v-6.217h45.594v6.217zm0 12.434v-6.217h45.594v6.217zm60.1-24.869v-6.217h45.594v6.217zm0 12.435v-6.217h45.594v6.217zm0 12.434v-6.217h45.594v6.217z"/><path d="M1366.5 300.5 1264 198m102.5 120.5L1264 216m102.5 120.5L1264 234m102.5 120.5L1264 252m102.5 120.5L1264 270m102.5 120.5L1264 288m102.5 120.5L1264 306m102.5 120.5L1264 324m102.5 120.5L1264 342m102.5 120.5L1264 360m102.5 120.5L1264 378m102.5 120.5L1264 396" stroke="#1E1E1E" stroke-width="2"/><path d="m357 141-32-32h32v32Zm0-54-32-32h32v32Zm54 54-32-32h32v32Zm0-54-32-32h32v32Zm54 54-32-32h32v32Zm0-54-32-32h32v32Zm54 54-32-32h32v32Zm0-54-32-32h32v32ZM357 249l-32-32h32v32Zm0-54-32-32h32v32Zm54 54-32-32h32v32Zm0-54-32-32h32v32Zm54 54-32-32h32v32Zm0-54-32-32h32v32Zm54 54-32-32h32v32Zm0-54-32-32h32v32Z" fill="#1F1E1E"/><path d="M50-103c7.5 13-1 15 9 27s23 9 29.5 23.5 16 17 19 26c2.4 7.2-7.167 15.5 0 20.5S128.4 3.8 134 9c7 6.5 22 13 28.5 24s11 15.5 11 21c0 4.4-11 17.5-4.5 17.5v26c-1.167 5.833-15.7 14.9-16.5 18.5-1 4.5 0 33 0 37.5s10 14.5 10 19 0-8.5 11 20c25.5 49.5 21 26 30 44 31 32 40 50.5 50 54.5s21.5 1.5 29.5 8.5 24.5 25 33.5 39 17.5 24 26.5 17.5 2.5-25 18.5-17.5S409 346 417 356s-12.5 5.5 17.5 14.5S455 377 481 388s22.5-13 76 7 31.5.5 53.5 17 31.5 51 43.5 64.5 7 12.5 20 25.5-9.5 37 50.5 23 42-33 76.5-16.5 39.5 17.5 64 32c47.5 39 33-7.5 68.5 40s22.5 45.5 65.5 41 13-.5 54-8 13.5-31.5 55.5 0M875-387c7.5 13-1 15 9 27s23 9 29.5 23.5 16 17 19 26c2.4 7.2-7.167 15.5 0 20.5s20.9 9.8 26.5 15c7 6.5 22 13 28.5 24s11 15.5 11 21c0 4.4-11 17.5-4.5 17.5v26c-1.167 5.833-15.7 14.9-16.5 18.5-1 4.5 0 33 0 37.5s10 14.5 10 19 0-8.5 11 20c25.5 49.5 21 26 30 44 31 32 40 50.5 50 54.5s21.5 1.5 29.5 8.5 24.5 25 33.5 39 17.5 24 26.5 17.5 2.5-25 18.5-17.5S1234 62 1242 72s-12.5 5.5 17.5 14.5S1280 93 1306 104s22.5-13 76 7 31.5.5 53.5 17 31.5 51 43.5 64.5 7 12.5 20 25.5-9.5 37 50.5 23 42-33 76.5-16.5 39.5 17.5 64 32c47.5 39 33-7.5 68.5 40s22.5 45.5 65.5 41 13-.5 54-8 13.5-31.5 55.5 0M0 363c7.5 13-1 15 9 27s23 9 29.5 23.5 16 17 19 26c2.4 7.2-7.167 15.5 0 20.5s20.9 9.8 26.5 15c7 6.5 22 13 28.5 24s11 15.5 11 21c0 4.4-11 17.5-4.5 17.5v26c-1.167 5.833-15.7 14.9-16.5 18.5-1 4.5 0 33 0 37.5s10 14.5 10 19 0-8.5 11 20c25.5 49.5 21 26 30 44 31 32 40 50.5 50 54.5s21.5 1.5 29.5 8.5 24.5 25 33.5 39 17.5 24 26.5 17.5 2.5-25 18.5-17.5S359 812 367 822s-12.5 5.5 17.5 14.5S405 843 431 854s22.5-13 76 7 31.5.5 53.5 17 31.5 51 43.5 64.5 7 12.5 20 25.5-9.5 37 50.5 23 42-33 76.5-16.5 39.5 17.5 64 32c47.5 39 33-7.5 68.5 40s22.5 45.5 65.5 41 13-.5 54-8 13.5-31.5 55.5 0" stroke="#181818" stroke-width="2"/></g><defs><linearGradient id="b" x1="953" y1="0" x2="953" y2="582" gradientUnits="userSpaceOnUse"><stop stop-color="#333"/><stop offset="1" stop-color="#181818"/></linearGradient><linearGradient id="c" x1="648" y1="121.5" x2="648" y2="711" gradientUnits="userSpaceOnUse"><stop stop-color="#333"/><stop offset="1" stop-color="#181818"/></linearGradient><linearGradient id="d" x1="648" y1="742" x2="648" y2="1109" gradientUnits="userSpaceOnUse"><stop stop-color="#333"/><stop offset="1" stop-color="#181818"/></linearGradient><linearGradient id="e" x1="933.5" y1="805.5" x2="933.5" y2="1120.5" gradientUnits="userSpaceOnUse"><stop stop-color="#333"/><stop offset="1" stop-color="#181818"/></linearGradient><linearGradient id="f" x1="122" y1="504" x2="122.547" y2="867.999" gradientUnits="userSpaceOnUse"><stop stop-color="#333"/><stop offset="1" stop-color="#181818"/></linearGradient><linearGradient id="g" x1="133" y1="-37.5" x2="133" y2="246.5" gradientUnits="userSpaceOnUse"><stop stop-color="#333"/><stop offset="1" stop-color="#181818"/></linearGradient></defs></svg>